PathFileType	4	(X/Y/Z)	31_2_rein_103_p1_0-258_filt_butterworth.trc
DataRate	CameraRate	NumFrames	NumMarkers	Units	OrigDataRate	OrigDataStartFrame	OrigNumFrames
44.0	44.0	6	27	m	44.0	193	258
Frame#	Time	RHip			RKnee			RAnkle			RBigToe			RSmallToe			RHeel			LHip			LKnee			LAnkle			LBigToe			LSmallToe			LHeel			Neck			Head			Nose			RShoulder			RElbow			RWrist			RThumb			RIndex			RPinky			LShoulder			LElbow			LWrist			LThumb			LIndex			LPinky			
		X1	Y1	Z1	X2	Y2	Z2	X3	Y3	Z3	X4	Y4	Z4	X5	Y5	Z5	X6	Y6	Z6	X7	Y7	Z7	X8	Y8	Z8	X9	Y9	Z9	X10	Y10	Z10	X11	Y11	Z11	X12	Y12	Z12	X13	Y13	Z13	X14	Y14	Z14	X15	Y15	Z15	X16	Y16	Z16	X17	Y17	Z17	X18	Y18	Z18	X19	Y19	Z19	X20	Y20	Z20	X21	Y21	Z21	X22	Y22	Z22	X23	Y23	Z23	X24	Y24	Z24	X25	Y25	Z25	X26	Y26	Z26	X27	Y27	Z27	
193	4.386363636363637	0.20753793669860277	0.6076286729670244	0.1279222352501428	0.16702789981527147	0.7703796807215254	0.5294089305574088	0.100570525379714	1.0707460185079176	0.9131810406108213	0.08542413091024537	0.8679682019365876	1.0012583180086074	0.1402046880520005	0.892419109365716	1.0025765129378243	0.08342348031059021	1.144550852977242	0.9433179098552095	0.014141792667047352	0.5224436006620439	0.12137364234057427	-0.05964893857073504	0.6024242189884932	0.5214249806248438	-0.07228554099306865	0.9998957561074443	0.871974768159355	-0.06931399011575913	0.827620871603918	0.9810487866018828	-0.12403956849771247	0.8717094092551128	0.9637364092682568	-0.043888715900167616	1.1144839171793357	0.9098872845495538	0.2003747008183725	0.1944192779463366	-0.3517691980977922	0.23588894359266593	-0.043724855830975434	-0.5363201107710941	0.2199632108959367	0.03062583811441539	-0.3671458936839612	0.3579815708789445	0.2731548012414694	-0.32577972189520316	0.47432037531035587	0.48415049095562634	-0.13831118493921615	0.3723148868943717	0.25536704707730806	-0.015351841997756212	0.28678055904740885	0.10186192053203258	0.02199089935882205	0.2866712098642992	0.0506109780324702	0.047537831841774875	0.2860259260000477	0.09305493615145594	0.08709102180670639	0.017201990766821752	0.22215341642964803	-0.3320312355291044	-0.10419753720547484	0.4573750546895338	-0.15291468074078976	-0.03415176647498933	0.43032497808323933	0.15739625558564344	0.02868257270503695	0.5104567857769294	0.23978032693171042	0.01029273069350108	0.5021123639599954	0.2696310574631565	-0.04384687838111966	0.4656787251787675	0.27006066364223746
194	4.409090909090909	0.20775287026201877	0.6072747109559306	0.12933870007586798	0.16698128674772433	0.7705096873014544	0.5294972411282974	0.1016053631805305	1.0698352753599762	0.9130319553520612	0.08565691713640691	0.8683472041902596	1.0023213342807007	0.1403001344246859	0.8925842811899984	1.0025528870253697	0.08362684573160077	1.1436782192531862	0.942658754804347	0.014172308122190093	0.5225237490954048	0.12131415252701294	-0.059647608951462164	0.6022211605096808	0.521172044861176	-0.07225625139493935	0.9997711640126192	0.8718532584879535	-0.07033754664954393	0.8223028017540919	0.9803881839448285	-0.12233343166412461	0.8658396571384654	0.9621339242576299	-0.044087141242976885	1.1140987487535323	0.9096993697424121	0.2003436771102584	0.19444847123117479	-0.35181231791702144	0.23602474321466912	-0.04356818367235661	-0.536774219876041	0.220152652595396	0.030699304351399233	-0.3670438700456936	0.35788171531186797	0.2734434550885075	-0.32631331732168223	0.47441069462636104	0.48406419966426695	-0.13835917495133518	0.37069350294334	0.25473779486058784	-0.015907133493043003	0.28163566669232765	0.10131382155423076	0.021687302537397424	0.2834774391528459	0.05562004469146306	0.04595389550411711	0.2846110998534436	0.09553921905223088	0.08790024327812093	0.01547826667523974	0.22266564636535385	-0.3310885378262496	-0.10418017324367332	0.4567089377081357	-0.15267175609766193	-0.03416251438996102	0.4303174695117393	0.1573479840405419	0.028649521258947794	0.5105840825545309	0.23972162963386237	0.009019366021145666	0.4987488208238372	0.26985799701503893	-0.04386086004600333	0.46574118141309284	0.27009656623699896
195	4.431818181818182	0.20857145542665623	0.6030903584481264	0.1301890544622693	0.16698522890364864	0.7706440510626521	0.5308778831129409	0.10242146161632758	1.0700650507803753	0.9128221000588386	0.08583506452232519	0.8696390758851141	1.0035192881888255	0.14039999598065045	0.8926167249617297	1.0025211662632114	0.08392006949606703	1.1423445362496543	0.9419096947650644	0.014200137528032515	0.5225773319426271	0.12128519340851641	-0.05965843162969463	0.6021969563252145	0.5214787814375519	-0.07221772511056576	0.9997393444907918	0.8716645672742804	-0.0717960113644761	0.814856995552247	0.979470550361768	-0.12006424309914249	0.8581146539832798	0.960409806161173	-0.04421479679080398	1.1138916821559743	0.909621649656868	0.20055337226413017	0.1947361554650217	-0.35206401549463123	0.2360694280636373	-0.0437947508323038	-0.5367238296207171	0.22006151074767946	0.031201160775702296	-0.36613615896799667	0.35795298689572325	0.27297568342498757	-0.32620739032425505	0.4730830380378609	0.48144990051084574	-0.13755424504540736	0.36966814566982664	0.2541206460906017	-0.016977050081178915	0.27709789270187224	0.10216475975044285	0.021094617765483912	0.28057423105224694	0.061907577979672494	0.04187128953561219	0.2843614297763345	0.09839303986030543	0.0879384322734127	0.014001914654643519	0.22253225166713145	-0.3298357641363303	-0.10417800515421322	0.45672728432646387	-0.1526806158151996	-0.03417223213019077	0.4304604585382384	0.1573944337291058	0.02870968798091708	0.5106139921049779	0.2393697452678893	0.007354312059537607	0.4975693482809742	0.2696239529177688	-0.04385132500464714	0.46567834839649547	0.26994553105705454
196	4.454545454545454	0.2098133244756027	0.5972440873492583	0.13156346265818575	0.16697859411713287	0.770691894821327	0.5327190323821888	0.1026718405073078	1.0700696974402177	0.9127034104692099	0.08589145516871544	0.8685156008148754	1.003153353692059	0.140456758504657	0.8925883061746323	1.002458357401102	0.08416214055305747	1.141626334087649	0.9412586525055181	0.014205433088777922	0.5225950748741872	0.12128399864741796	-0.05968851931840243	0.6024199739172106	0.5226750763592124	-0.07217596362862032	0.9997646103384777	0.8715002212678451	-0.0726907871348136	0.8103699497857046	0.9788921909429182	-0.11872737306232886	0.8535234825015688	0.9596340609066295	-0.044230249347185585	1.1139358163508695	0.9096590221647671	0.20048802277124023	0.19425050016984846	-0.3518952394014332	0.23624100688613664	-0.04415383939012236	-0.5366133344958127	0.21781773485382863	0.029321987094128026	-0.3638029601502852	0.3580512872726153	0.2697461277633394	-0.324041128275091	0.4700866072696165	0.4752969793799394	-0.13609710793841684	0.36780038994002795	0.25003140707949567	-0.017620560313708625	0.27527575031063023	0.10249816372741136	0.020411744691319785	0.2789229669700734	0.06878326676217812	0.037900569116928656	0.2848235971854789	0.09895118035416378	0.08720191862224139	0.012549722197370695	0.21997651157061102	-0.32721736430630566	-0.10418235154558612	0.4569369510058163	-0.1527723743986617	-0.034202139635667705	0.43046564435803963	0.15734323148370477	0.028861418033541125	0.5106045598946347	0.2383557238041994	0.006335280540751668	0.4972918957711606	0.26965667941288024	-0.04384721675210027	0.46560135998063623	0.2698147060930436
197	4.477272727272728	0.21062569723102148	0.5939548105936899	0.13390886017421738	0.1669527561850494	0.7706377595867866	0.5338114077269923	0.10256680360959727	1.07001150061674	0.9126554936464973	0.08637263737868289	0.8621162672858484	1.0012207934456159	0.14043070964404053	0.8923527854722764	1.0023557955688571	0.0841976557006453	1.1415004040453427	0.9409514112045685	0.014191036872759535	0.5226200996479313	0.12127966528183837	-0.05974627326755792	0.602769570909669	0.5244372124559737	-0.07214760917130769	0.9997779429696724	0.8714828956414866	-0.07278310583632414	0.8098853542905615	0.9788064136724456	-0.11862010442465923	0.8530867000115359	0.9596133842058	-0.0442226641097354	1.1141301199330083	0.9097995504060189	0.19888972744144576	0.1912550204027912	-0.35013540565860374	0.23612273743623183	-0.04413758917272946	-0.5368153141608505	0.21414652497812378	0.025412227608460656	-0.3612884294214851	0.3589787627103277	0.2646525303737123	-0.32035500257387817	0.4668670219645905	0.4640413544234885	-0.13254638474261843	0.3645557704381569	0.24269078769416558	-0.01737243648106464	0.27568898259124247	0.10503835049999777	0.018519931112302206	0.27743005353151007	0.07644005986857882	0.03425855036736302	0.28560070439849505	0.09381181797859382	0.08560413220080136	0.010846569820635426	0.21593303334390432	-0.3237072961886551	-0.10417226617054992	0.45697724423917563	-0.15288113800502878	-0.03422538298581576	0.4304277883836889	0.15726444271550982	0.028690645123763066	0.5105534353048803	0.2365676639066348	0.006220785955055546	0.4979993100339827	0.2699087298343377	-0.04383790204510012	0.4656256952259612	0.2698102183895522
198	4.5	0.21081572625455736	0.5936341738599193	0.13580141113400582	0.16691651530213222	0.7705190229997178	0.5339012222255579	0.10249773864056841	1.0700563769076625	0.9126697715295311	0.08781209911503474	0.8540691173311846	0.9995420621810412	0.14078172755666035	0.8929485833494221	1.00239147427402	0.08413440319900192	1.1415066427147065	0.9408521579919391	0.014164462443739178	0.5226656187730356	0.12126537508263484	-0.05982851685415275	0.6030109955795171	0.5255465738730509	-0.07214166638179442	0.9997855024578399	0.8715670295787976	-0.0726240986388957	0.8105179267509536	0.9788465389633879	-0.11876427696231082	0.8535269574080592	0.9596734490790163	-0.04423346237670807	1.1143121025423017	0.9099557165504097	0.19552495386247978	0.1868376734327661	-0.34700118051053197	0.23422642615513245	-0.043388884719825854	-0.5367690785175026	0.21178715525174246	0.022632946196400078	-0.3600370225016828	0.3604374435040234	0.2611956021344003	-0.3176066714750928	0.46466660801949344	0.4456144076599359	-0.12412293688438558	0.3626395373288517	0.23732497048567364	-0.01727122491900561	0.2763964618937972	0.11087102318223233	0.014945243497398637	0.2758274355602149	0.08285792702661665	0.02988439743160822	0.2863214212849679	0.08262080558813215	0.08136152530737478	0.009696247318301949	0.2136937312201607	-0.3210348589388866	-0.10414374263839343	0.4569478429531131	-0.15305230814496676	-0.03424107919828868	0.4304680396339964	0.15722481066025776	0.027664053508794063	0.5105086853363889	0.23486304669361086	0.00641163343259632	0.4994998053504449	0.2700794340124162	-0.04382794142307743	0.4657478388381384	0.26988001776056336
